# Blender 4.5.1 LTS
# www.blender.org
mtllib Untitled.mtl
o SmokeCloud
v -1.604651 -0.046710 1.216808
v -1.609085 -0.006470 0.495795
v -1.200526 -0.049657 1.817997
v -1.193493 -0.289494 1.741649
v -1.201872 -0.610343 1.596815
v -1.103057 -0.062691 1.914195
v -0.916963 -0.599646 1.819073
v -0.793335 -0.590106 1.916917
v -1.383761 -0.737051 0.897128
v -1.201558 -0.807268 1.320097
v -1.098017 -1.029108 0.968925
v -1.130239 -1.009986 0.827104
v -1.008651 -1.103073 0.822546
v -0.937820 -0.879423 1.516048
v -1.002476 -1.101762 0.921338
v -0.643864 -1.091531 1.457061
v -0.815475 -1.101977 1.188464
v -1.526798 -0.044792 1.370974
v -1.533127 -0.179168 1.300359
v -1.567262 -0.297585 1.061827
v -1.513752 -0.559657 0.958041
v -1.500243 -0.608852 0.888956
v -1.551708 -0.472831 0.841216
v -1.407363 -0.397473 1.415871
v -1.296620 -0.605549 1.503826
v -1.377268 -0.600466 1.304207
v -1.201935 -0.721982 1.509951
v -1.280700 -0.698377 1.408211
v -1.453235 -0.644463 0.773871
v -1.098972 -1.007418 0.715879
v -1.192867 -0.791736 0.363401
v -0.827759 -0.965466 0.249952
v -0.824321 -1.095356 0.540177
v -1.504870 -0.582296 0.779732
v -1.509983 -0.216859 0.408123
v -1.393316 -0.594771 0.471789
v -1.306436 -0.700037 0.422485
v -1.292575 -0.660733 0.291488
v -1.319976 -0.540553 0.242182
v -1.491725 -0.047364 0.315460
v -1.204228 -0.316097 0.010053
v -1.202505 -0.706709 0.205835
v -1.212425 -0.612648 0.146458
v -0.896880 -0.606018 -0.097264
v -1.007454 -0.592079 -0.021410
v -0.666029 -1.018424 1.549833
v -0.588755 -1.006057 1.595508
v -0.450174 -1.003223 1.595783
v -0.191496 -0.788875 1.804412
v 0.003946 -0.851656 1.658615
v -0.714227 -0.420872 1.997243
v -0.692459 -0.534369 1.975935
v -0.657714 -0.634408 1.920411
v -0.460141 -0.051944 2.128364
v -0.532373 -0.314157 2.053327
v -0.147526 -0.689724 1.896305
v -0.337702 -0.075344 2.128568
v -0.179137 -0.522433 1.972298
v -0.219662 -0.014102 2.107036
v -0.009714 -0.628389 1.908789
v -0.006397 -0.714676 1.838793
v -0.561545 -1.097114 1.487315
v -0.484027 -1.210968 1.107525
v -0.440988 -1.266571 0.881094
v -0.473494 -1.101521 1.459316
v -0.342532 -1.251776 0.972624
v -0.336733 -1.263149 0.800650
v -0.159105 -1.098591 1.363875
v -0.163072 -1.209997 0.725596
v 0.122676 -1.025954 1.380467
v -0.169690 -1.213752 0.996309
v -0.608236 -1.100708 0.269780
v -0.656066 -1.009914 0.169526
v -0.476857 -1.226432 0.676352
v -0.563933 -1.033367 0.168049
v -0.450969 -1.101509 0.277755
v -0.358978 -0.946129 0.086040
v -0.442002 -0.878982 0.007581
v -0.253634 -1.095205 0.334435
v -0.176352 -0.964639 0.159461
v -0.304957 -0.891019 -0.003615
v 0.105508 -1.109147 0.485871
v -0.057587 -0.986337 0.219278
v -0.087482 -0.963221 0.084951
v 0.137397 -1.107065 0.545969
v -0.015132 -1.031077 0.302071
v 0.009254 -0.982300 0.175412
v -1.604462 0.042026 1.226360
v -1.202643 0.053903 1.821084
v -1.298370 0.503152 1.589415
v -1.191504 0.610274 1.611675
v -1.103176 0.059090 1.914689
v -1.217733 0.248397 1.750903
v -1.209656 0.354342 1.718232
v -0.926011 0.372095 1.904526
v -1.084532 0.585674 1.705836
v -0.765647 0.625666 1.905426
v -0.789703 0.723143 1.813082
v -1.533873 0.048700 1.365419
v -1.495302 0.608643 0.881122
v -1.496620 0.564190 0.965573
v -1.605046 0.042705 0.555068
v -1.452073 0.250770 1.434448
v -1.373550 0.504873 1.453711
v -1.429972 0.700208 0.956982
v -1.429243 0.715177 0.808750
v -1.306063 0.599457 1.518317
v -1.395447 0.600710 1.261249
v -1.272012 0.687004 1.406912
v -1.144906 0.763699 1.478494
v -1.283494 0.832797 0.995387
v -1.147764 0.934191 1.117125
v -1.110432 0.968650 0.687332
v -0.996208 1.019464 1.298499
v -0.915107 1.106786 1.202954
v -0.881248 1.002301 1.416965
v -0.905268 1.110786 0.501532
v -1.494797 0.541743 0.732743
v -1.505037 0.235180 0.392721
v -1.519597 0.078706 0.353319
v -1.401188 0.604772 0.497530
v -1.405417 0.043670 0.190658
v -1.366684 0.508909 0.266363
v -1.255154 0.845652 0.681537
v -1.298555 0.596294 0.192805
v -1.196555 0.003333 -0.104494
v -1.253475 0.713107 0.339900
v -1.310946 0.468000 0.155579
v -1.028379 0.912110 0.327674
v -1.235122 0.575970 0.128190
v -1.054947 0.643762 0.052690
v -1.072914 0.483332 -0.030858
v -0.921034 0.672311 -0.032082
v -0.824574 0.738597 -0.043267
v -1.070719 0.932599 0.411756
v -0.975610 1.042773 0.442311
v -0.868402 0.991574 0.300328
v -0.778279 0.821271 1.702058
v -0.672945 0.681888 1.907637
v -0.582989 0.820175 1.767910
v -0.463129 0.049438 2.124655
v -0.611002 0.409122 2.004990
v -0.524587 0.443635 2.004728
v -0.433504 0.861682 1.739551
v -0.327360 0.086567 2.128158
v -0.148437 0.525920 1.983306
v -0.134662 0.636457 1.923559
v 0.006950 0.430739 1.977672
v -0.047850 0.511164 1.976890
v 0.000545 0.598482 1.925605
v -0.403489 1.103103 1.436847
v -0.301247 0.999484 1.611151
v -0.128948 0.996116 1.595770
v -0.861210 1.102703 1.283760
v -0.621544 1.209683 1.006222
v -0.395362 1.265009 0.952889
v -0.614219 1.212206 0.715865
v -0.381463 1.277212 0.852557
v -0.202948 1.101289 1.500263
v -0.307697 1.208683 1.141660
v -0.123654 1.103490 1.437481
v -0.225011 1.236202 0.947546
v -0.103035 1.207290 0.828461
v -0.703942 1.097458 0.387290
v -0.725585 0.860395 0.063985
v -0.489591 1.230394 0.704651
v -0.300413 1.007488 0.134975
v -0.255799 1.102923 0.251938
v -0.443448 0.890063 -0.002696
v -0.342460 1.197393 0.555405
v -0.269051 1.208298 0.603205
v -0.194659 0.895520 0.005201
v -0.126843 1.022981 0.174990
v -0.137315 1.103691 0.282033
v -0.032158 1.016844 0.226256
v -1.087116 -0.093670 -0.177104
v -1.006957 -0.188505 -0.195369
v -0.941167 0.000347 -0.273400
v -0.876552 -0.017164 -0.332195
v -0.806010 -0.520057 -0.205101
v -0.647617 -0.242252 -0.310572
v -0.828982 -0.137117 -0.281394
v -0.771160 -0.043949 -0.483037
v -0.720980 -0.716116 -0.097243
v -0.449201 -0.815043 -0.062350
v -0.406037 -0.802217 -0.158688
v -0.428790 -0.813574 -0.395803
v -0.404223 -0.793857 -0.610772
v -0.311002 -0.851466 -0.757695
v -0.289392 -0.890679 -0.083490
v -0.193997 -1.018328 -0.318235
v -0.194664 -1.012928 -0.467377
v -0.193444 -0.888086 -0.900301
v -0.722005 -0.591847 -0.206352
v -0.605769 -0.450808 -0.294282
v -0.695460 -0.103880 -0.397002
v -0.659660 -0.589796 -0.216332
v -0.582991 -0.185435 -0.380901
v -0.641206 -0.098292 -0.579170
v -0.540038 -0.716163 -0.152993
v -0.497451 -0.699422 -0.262012
v -0.545148 -0.637764 -0.249850
v -0.545472 -0.510944 -0.358242
v -0.536498 -0.253856 -0.388021
v -0.523777 -0.533720 -0.441203
v -0.496514 -0.297565 -0.484120
v -0.488821 -0.181972 -0.578305
v -0.509533 -0.518499 -0.690816
v -0.511489 -0.431075 -0.700332
v -0.497184 -0.090653 -0.851360
v -0.479777 -0.718317 -0.436387
v -0.422090 -0.234755 -0.751999
v -0.310389 -0.809285 -0.897467
v -0.441027 -0.165358 -0.759688
v -0.398548 -0.202482 -0.811490
v -0.201814 -0.809348 -1.017721
v 0.070506 -1.015654 -0.908783
v 0.007568 -0.796849 -1.212282
v -0.443229 -0.084177 -0.930313
v -0.406419 -0.528254 -0.889797
v -0.422602 -0.429520 -0.877738
v -0.353793 -0.150683 -0.940816
v -0.287138 -0.084450 -0.987119
v -0.264690 -0.480377 -1.140025
v -0.322004 -0.278100 -1.003367
v -0.222871 0.025479 -1.118847
v -0.293263 -0.735572 -0.973012
v -0.285027 -0.157101 -0.984334
v -0.207315 -0.514009 -1.213957
v -0.203819 -0.389998 -1.203010
v -0.108224 -0.154253 -1.135994
v -0.133554 -0.052501 -1.103736
v -0.068744 -0.434766 -1.286962
v 0.003302 0.003911 -1.097189
v 0.015373 -0.134979 -1.219757
v -0.044439 -0.041043 -1.121265
v -0.037594 -0.555930 -1.294069
v -1.207016 0.260006 -0.023425
v -1.081105 0.285507 -0.111992
v -1.060938 0.149678 -0.186794
v -1.052339 0.063199 -0.210057
v -1.010079 0.451503 -0.165149
v -1.002769 0.231111 -0.282273
v -1.019266 0.357627 -0.232460
v -1.015352 0.341589 -0.671567
v -1.009317 0.446359 -0.653521
v -1.011621 0.390306 -0.710976
v -0.992829 0.517672 -0.090602
v -0.908426 0.635388 -0.144049
v -0.975257 0.581856 -0.444597
v -0.913970 0.702228 -0.394648
v -0.929960 0.062437 -0.349939
v -0.996744 0.201467 -0.496722
v -0.907784 0.697010 -0.508915
v -0.893397 0.107465 -0.717542
v -0.917887 0.212818 -0.808732
v -0.895993 0.600561 -0.823104
v -0.755445 0.780357 -0.155726
v -0.811571 0.086181 -0.908540
v -0.906149 0.350668 -0.904254
v -0.907003 0.449241 -0.903242
v -0.799038 0.581247 -1.009803
v -0.795884 0.409013 -1.104199
v -0.698899 0.820161 -0.056705
v -0.681845 0.840076 -0.231469
v -0.663984 0.847115 -0.636514
v -0.761799 0.038608 -0.873041
v -0.673265 0.824382 -0.747997
v -0.541799 0.893724 -0.243165
v -0.524413 0.898994 -0.616460
v -0.570589 0.848343 -0.791010
v -0.285750 0.938604 -0.339567
v -0.308064 0.946682 -0.434065
v -0.257377 0.897905 -0.130362
v -0.364155 0.922342 -0.578189
v -0.251336 0.872786 -0.841782
v -0.151998 0.874553 -0.797752
v -0.138561 0.874916 -0.068979
v 0.032747 0.879511 -0.411161
v -0.817181 0.667125 -0.890466
v -0.812006 0.148088 -0.961366
v -0.753058 0.353274 -1.140879
v -0.613059 0.220109 -1.207597
v -0.644635 0.690725 -1.035699
v -0.634023 0.099147 -1.085659
v -0.535572 0.624402 -1.192227
v -0.702326 0.398253 -1.199206
v -0.490357 0.104773 -1.197070
v -0.381927 0.343917 -1.325918
v -0.501594 0.708555 -1.125773
v -0.422372 0.652636 -1.203108
v -0.217044 0.094087 -1.201831
v -0.384335 0.281983 -1.308564
v -0.364513 0.442622 -1.322033
v -0.255511 0.812479 -0.987564
v -0.324804 0.699254 -1.156073
v -0.220922 0.332374 -1.315173
v -0.267566 0.456741 -1.319219
v -0.097202 0.684101 -1.138316
v -0.154479 0.059180 -1.160052
v -0.100010 0.115448 -1.191209
v -0.172645 0.442774 -1.298532
v -0.085207 0.615342 -1.216405
v -0.115251 0.830431 -0.903736
v -0.044439 0.045354 -1.121181
v 0.118547 -0.002796 1.997838
v 0.284619 -0.593866 1.725078
v 0.345759 -0.061885 1.905333
v 0.407278 -0.240726 1.790442
v 0.517388 -0.533189 1.588347
v 0.440708 -0.052884 1.816104
v 0.601843 0.000204 1.603261
v 0.072784 -1.102070 1.284515
v 0.137292 -0.904693 1.511019
v 0.139587 -1.106232 1.200607
v 0.219280 -1.026282 1.295237
v 0.262353 -1.026026 1.137711
v 0.399523 -0.798385 1.398629
v 0.432210 -0.880524 1.110118
v 0.595511 -0.772024 0.885404
v 0.457620 -0.610788 1.585248
v 0.523034 -0.625632 1.496791
v 0.586241 -0.521683 1.505146
v 0.659358 -0.704603 0.951712
v 0.612042 -0.636102 1.239871
v 0.708543 -0.266189 1.394016
v 0.803757 -0.155493 1.222395
v 0.713291 -0.612684 0.961935
v 0.676504 -0.699266 0.844372
v 0.836411 -0.059139 1.168870
v 0.720987 -0.626710 0.835188
v 0.046035 -1.000188 0.237454
v 0.100623 -1.029325 0.151728
v 0.153443 -1.000607 0.325048
v 0.147313 -1.004443 0.246618
v 0.255885 -1.029645 0.578365
v 0.253695 -0.968041 0.356009
v 0.257693 -1.051158 0.101125
v 0.343859 -0.963780 0.262973
v 0.340766 -0.930180 0.466114
v 0.413069 -0.884366 0.415249
v 0.528186 -0.895074 0.320971
v 0.571844 -1.009134 0.072686
v 0.483088 -0.846366 0.688528
v 0.508631 -0.799697 0.547088
v 0.556772 -0.806544 0.446687
v 0.673863 -1.006110 -0.000889
v 0.813945 -0.796492 0.221764
v 0.701493 -0.999677 -0.042766
v 0.609177 -0.690802 0.609701
v 0.695461 -0.564493 0.641942
v 0.633468 -0.660456 0.548700
v 0.712163 -0.531653 0.550127
v 0.663881 -0.678255 0.449411
v 0.793328 -0.273187 0.665577
v 0.747083 -0.389834 0.565983
v 0.798403 -0.176779 0.510426
v 0.791023 -0.522938 0.428989
v 0.775731 -0.445506 0.457866
v 0.784699 -0.284786 0.399394
v 0.810206 -0.057506 1.304657
v 0.839115 -0.048372 0.566875
v 0.906220 -0.787291 0.082410
v 0.868505 -0.078593 0.444296
v 0.875081 -0.247722 0.277867
v 0.869577 -0.171371 0.355565
v 1.049472 -0.448345 -0.002328
v 0.902748 -0.300868 0.200205
v 0.903529 -0.706480 0.185815
v 0.990529 -0.058876 0.302256
v 0.992125 -0.116938 0.220537
v 1.037331 -0.543994 0.001408
v 0.935027 -0.257880 0.155351
v 1.035934 -0.157497 0.000266
v 1.113330 0.026968 0.095723
v 1.001081 -0.261728 0.011330
v 0.060435 0.647710 1.842255
v 0.144659 0.410052 1.913170
v 0.346060 0.591825 1.680331
v 0.434031 0.694508 1.547297
v 0.338664 0.066865 1.911762
v 0.407952 0.049991 1.856217
v 0.400049 0.247389 1.788613
v 0.493706 0.526685 1.581235
v 0.685430 0.292581 1.393760
v 0.498657 0.688093 1.498487
v 0.583903 0.568792 1.417014
v 0.597781 0.692715 1.148323
v 0.813724 0.066364 1.294191
v 0.657300 0.582173 1.196763
v 0.792859 0.335432 1.073900
v 0.723971 0.611133 0.954868
v 0.740745 0.600709 0.851129
v 0.013610 0.987061 1.509425
v 0.215305 1.102542 0.972740
v 0.309368 0.808349 1.503023
v 0.373754 0.918976 1.172325
v 0.258209 1.100734 0.833642
v 0.349751 1.031375 0.839060
v 0.315503 1.057187 0.929278
v 0.019148 0.833044 0.047124
v 0.199008 0.698643 0.004455
v 0.288860 0.745376 0.139802
v 0.303177 0.592570 -0.006303
v 0.257513 0.641762 -0.012935
v 0.490089 0.582054 0.158095
v 0.509294 0.699063 0.295453
v 0.451448 0.704371 0.217087
v 0.627864 0.655148 0.588325
v 0.576222 0.535443 0.237560
v 0.534895 0.507659 0.046769
v 0.608602 0.584247 0.400974
v 0.630610 0.479003 0.158191
v 0.774459 0.396796 0.674038
v 0.714515 0.606749 0.732115
v 0.767983 0.315357 0.559024
v 0.751974 0.352133 0.444859
v 0.696780 0.416457 0.397207
v 0.184101 0.870329 0.210767
v 0.109230 1.099453 0.601445
v 0.367296 0.965891 0.666207
v 0.404780 0.801666 0.343919
v 0.841766 0.049386 1.138075
v 0.789924 0.461187 0.897045
v 0.841496 0.048351 0.668186
v 0.809386 0.261229 0.655813
v 0.874667 0.053791 0.506050
v 0.825437 0.193141 0.561613
v 0.874149 0.173546 0.471744
v 0.778062 0.354546 0.379156
v 0.864551 0.392629 0.126655
v 0.922823 0.309552 0.307674
v 1.043267 0.046814 0.271430
v 1.033027 0.144241 0.270184
v 1.008635 0.297795 0.122979
v 1.102395 0.100678 0.197214
v 1.107782 0.210202 -0.047480
v -0.106545 -1.063565 -0.367989
v 0.219249 -1.129537 -0.494361
v 0.120451 -1.055081 -0.831109
v 0.196051 -1.099774 -0.096303
v 0.252320 -1.142196 -0.368210
v 0.229997 -1.044596 -0.888986
v 0.344837 -1.132069 -0.298869
v 0.569124 -1.069286 -0.106436
v 0.373315 -1.127732 -0.474313
v 0.541644 -1.083467 -0.481458
v 0.552970 -1.062996 -0.691478
v 0.686634 -1.024299 -0.122100
v 0.677375 -1.030880 -0.613654
v 0.617574 -1.017776 -0.790573
v 0.702404 -1.003805 -0.698360
v 0.810318 -0.001724 -0.737479
v 0.144565 -0.989234 -0.997045
v 0.150776 -0.776948 -1.271738
v 0.495111 -0.822955 -1.223292
v 0.430224 -0.879678 -1.157490
v 0.593651 -0.909088 -1.006392
v 0.886323 -0.800283 -0.868628
v 0.732929 -0.810271 -1.041652
v 0.078335 -0.714284 -1.302939
v 0.085143 -0.282733 -1.309085
v 0.207946 -0.489610 -1.404323
v 0.142583 -0.016326 -1.122675
v 0.167580 -0.199664 -1.294562
v 0.106973 -0.084155 -1.211347
v 0.403218 -0.718824 -1.302545
v 0.297314 -0.509850 -1.409513
v 0.300265 -0.399319 -1.404087
v 0.417783 0.003500 -1.074492
v 0.336006 -0.449402 -1.404298
v 0.484181 -0.197817 -1.300976
v 0.495182 -0.102696 -1.211179
v 0.471881 0.099833 -0.906360
v 0.577005 -0.770444 -1.212083
v 0.568858 -0.523549 -1.309980
v 0.634215 -0.416200 -1.287273
v 0.650189 0.031752 -0.856123
v 0.592318 -0.161743 -1.206842
v 0.783592 -0.544830 -1.184216
v 0.718087 -0.331889 -1.210571
v 0.818110 -0.768168 -1.003603
v 0.818687 -0.098366 -0.942223
v 0.781025 -0.454545 -1.203264
v 0.794784 -0.333568 -1.138717
v 0.939615 -0.860165 -0.288852
v 0.918499 -0.882016 -0.442414
v 1.000936 -0.804474 -0.329079
v 0.922133 -0.029157 -0.578741
v 0.899073 -0.115441 -0.795832
v 1.009447 -0.129435 -0.456646
v 0.999528 -0.722852 -0.611440
v 1.006754 -0.328913 -0.782120
v 1.031939 -0.252896 -0.108941
v 1.099657 -0.015008 -0.176831
v 1.069227 -0.549528 -0.172765
v 1.081658 -0.437447 -0.161462
v 1.033931 -0.143657 -0.329902
v 1.004511 -0.803930 -0.413749
v 1.030416 -0.036476 -0.392391
v 1.079023 -0.426088 -0.642895
v 1.070295 -0.541510 -0.616058
v 1.015737 -0.575165 -0.797771
v 1.039321 -0.448699 -0.772308
v 0.887445 -0.539480 -1.032939
v 0.901388 -0.202437 -0.902535
v 0.903751 -0.430917 -1.007414
v 0.919192 -0.711211 -0.912778
v 0.021015 0.806598 -0.055317
v 0.109754 0.810870 -0.604075
v 0.138867 0.745051 -0.058223
v 0.304058 0.684245 -0.417243
v 0.154539 0.803527 -0.342850
v 0.213917 0.705985 -0.761077
v 0.401031 0.563938 -0.352742
v 0.397814 0.558365 -0.466355
v 0.313185 0.626822 -0.619758
v 0.394101 0.431152 -0.681974
v 0.423518 0.528490 -0.093678
v 0.495932 0.491680 -0.323073
v 0.467000 0.467168 -0.502476
v 0.483200 0.355020 -0.637572
v 0.468311 0.280300 -0.726056
v 0.438745 0.213843 -0.786083
v 0.572509 0.425719 -0.486682
v 0.611079 0.101339 -0.788315
v 0.660751 0.302884 -0.644240
v 0.750327 0.468562 -0.095909
v 0.784810 0.412788 -0.312026
v 0.772406 0.119712 -0.693620
v 0.710256 0.211477 -0.688663
v 0.102564 0.845209 -0.467024
v 0.035494 0.039830 -1.103139
v 0.196708 0.640227 -0.931530
v 0.025979 0.150000 -1.121851
v 0.082836 0.351173 -1.192223
v 0.080401 0.446826 -1.187395
v 0.185339 0.695018 -0.885021
v 0.159519 0.076558 -1.020744
v 0.151091 0.154068 -1.012305
v 0.224903 0.227049 -0.976628
v 0.143579 0.339260 -1.138752
v 0.195930 0.451394 -1.044740
v 0.261032 0.163679 -0.940397
v 0.321530 0.348630 -0.851679
v 0.341575 0.474496 -0.784901
v 0.332274 0.117579 -0.946244
v 0.356255 0.194838 -0.858494
v 0.886810 0.409597 -0.093093
v 0.908749 0.307356 -0.454341
v 0.860237 0.055641 -0.642362
v 0.901383 0.110749 -0.596593
v 0.986968 0.299210 -0.314583
v 1.030661 0.311769 -0.084832
v 1.110389 0.103615 -0.300581
v 1.037501 0.164742 -0.379776
vn -0.9647 -0.1209 0.2341
vn -0.9600 -0.0123 -0.2797
vn -0.7495 -0.1195 0.6512
vn -0.6843 -0.2670 0.6786
vn -0.6002 -0.4110 0.6862
vn -0.5330 -0.1303 0.8360
vn -0.5344 -0.4481 0.7167
vn -0.3891 -0.4783 0.7873
vn -0.7491 -0.6592 0.0648
vn -0.5953 -0.7447 0.3016
vn -0.6074 -0.7697 0.1967
vn -0.6757 -0.7336 -0.0732
vn -0.4508 -0.8854 -0.1129
vn -0.4608 -0.7463 0.4804
vn -0.4350 -0.8892 0.1416
vn -0.3310 -0.8654 0.3761
vn -0.3627 -0.8934 0.2651
vn -0.8462 -0.1163 0.5200
vn -0.8803 -0.2659 0.3929
vn -0.9497 -0.2532 0.1842
vn -0.8943 -0.4008 0.1990
vn -0.8435 -0.5348 0.0508
vn -0.9656 -0.2547 -0.0526
vn -0.8589 -0.2681 0.4364
vn -0.7701 -0.3843 0.5091
vn -0.8429 -0.4550 0.2872
vn -0.5668 -0.6494 0.5070
vn -0.7319 -0.6073 0.3091
vn -0.7499 -0.6399 -0.1680
vn -0.5981 -0.7545 -0.2704
vn -0.5943 -0.7382 -0.3191
vn -0.4595 -0.7697 -0.4433
vn -0.3831 -0.8795 -0.2822
vn -0.8697 -0.4564 -0.1881
vn -0.8731 -0.2616 -0.4115
vn -0.8502 -0.4334 -0.2988
vn -0.7421 -0.6248 -0.2429
vn -0.7675 -0.5119 -0.3860
vn -0.8089 -0.3054 -0.5023
vn -0.8251 -0.1117 -0.5538
vn -0.6932 -0.2607 -0.6720
vn -0.5921 -0.6104 -0.5262
vn -0.6472 -0.3897 -0.6552
vn -0.4806 -0.5146 -0.7101
vn -0.5578 -0.3973 -0.7287
vn -0.3466 -0.7308 0.5881
vn -0.1400 -0.7191 0.6807
vn 0.0922 -0.7678 0.6340
vn 0.0915 -0.7255 0.6821
vn 0.2642 -0.7655 0.5867
vn -0.2937 -0.2020 0.9343
vn -0.1837 -0.3645 0.9129
vn -0.1186 -0.5947 0.7951
vn -0.1521 -0.0903 0.9842
vn -0.0656 -0.2824 0.9571
vn 0.0788 -0.5695 0.8182
vn 0.1005 -0.1572 0.9824
vn 0.1079 -0.3246 0.9397
vn 0.2767 -0.0468 0.9598
vn 0.3210 -0.4364 0.8405
vn 0.3277 -0.6665 0.6696
vn -0.0859 -0.8819 0.4636
vn -0.1304 -0.9617 0.2409
vn -0.1266 -0.9915 0.0316
vn 0.1114 -0.8935 0.4350
vn 0.0857 -0.9785 0.1877
vn 0.1018 -0.9881 -0.1156
vn 0.1406 -0.8846 0.4446
vn 0.2762 -0.9585 -0.0704
vn 0.3463 -0.7686 0.5378
vn 0.2481 -0.9634 0.1016
vn -0.1994 -0.8819 -0.4273
vn -0.3078 -0.7243 -0.6169
vn -0.1341 -0.9645 -0.2273
vn -0.0663 -0.7540 -0.6535
vn 0.0842 -0.8877 -0.4527
vn 0.0580 -0.8131 -0.5792
vn -0.0990 -0.7311 -0.6751
vn 0.1632 -0.8531 -0.4956
vn 0.0153 -0.9100 -0.4144
vn -0.2140 -0.9175 -0.3353
vn 0.3239 -0.8961 -0.3033
vn 0.0148 -0.9222 -0.3864
vn -0.2963 -0.9543 0.0394
vn 0.4496 -0.8860 -0.1134
vn 0.1291 -0.8859 -0.4454
vn -0.2737 -0.9618 -0.0068
vn -0.9641 0.1092 0.2421
vn -0.7447 0.0757 0.6630
vn -0.7156 0.2961 0.6326
vn -0.5330 0.5349 0.6556
vn -0.5147 0.1203 0.8489
vn -0.7053 0.2107 0.6769
vn -0.5729 0.3053 0.7606
vn -0.4962 0.3087 0.8115
vn -0.5219 0.4240 0.7402
vn -0.3771 0.3986 0.8360
vn -0.3796 0.6559 0.6525
vn -0.8593 0.0731 0.5063
vn -0.9228 0.3852 0.0137
vn -0.9177 0.3450 0.1969
vn -0.9763 0.1933 -0.0975
vn -0.8465 0.1870 0.4985
vn -0.8744 0.3112 0.3724
vn -0.7835 0.5988 0.1661
vn -0.7772 0.6205 -0.1050
vn -0.7183 0.5120 0.4711
vn -0.8401 0.4673 0.2755
vn -0.6880 0.6562 0.3099
vn -0.5488 0.6673 0.5036
vn -0.6541 0.7517 0.0844
vn -0.6550 0.7420 0.1427
vn -0.6139 0.7876 -0.0527
vn -0.5621 0.7380 0.3734
vn -0.4358 0.8823 0.1776
vn -0.3474 0.7525 0.5595
vn -0.3886 0.8865 -0.2513
vn -0.9215 0.3376 -0.1918
vn -0.8955 0.2568 -0.3635
vn -0.8477 0.0989 -0.5212
vn -0.8365 0.4739 -0.2752
vn -0.8150 0.0217 -0.5791
vn -0.8695 0.3040 -0.3893
vn -0.6693 0.7211 -0.1788
vn -0.7058 0.4827 -0.5186
vn -0.7185 -0.0173 -0.6953
vn -0.6868 0.6580 -0.3087
vn -0.7597 0.2235 -0.6106
vn -0.5268 0.6691 -0.5242
vn -0.5606 0.4228 -0.7120
vn -0.4243 -0.3878 -0.8183
vn -0.6430 0.3902 -0.6590
vn -0.5812 0.6454 -0.4957
vn -0.5472 0.7576 -0.3559
vn -0.6537 0.6646 -0.3620
vn -0.5346 0.7577 -0.3744
vn -0.3334 0.7534 -0.5668
vn -0.2814 0.7530 0.5949
vn -0.1647 0.5532 0.8166
vn -0.1460 0.7601 0.6332
vn -0.1694 0.1210 0.9781
vn -0.2106 0.2474 0.9458
vn -0.0666 0.3185 0.9456
vn -0.0132 0.6883 0.7253
vn 0.0850 0.1513 0.9848
vn 0.0576 0.3802 0.9231
vn 0.0919 0.5740 0.8137
vn 0.3525 0.2106 0.9118
vn 0.2349 0.3200 0.9178
vn 0.3381 0.4951 0.8003
vn -0.1415 0.8816 0.4503
vn -0.0515 0.7409 0.6696
vn 0.2534 0.7091 0.6580
vn -0.2752 0.8735 0.4015
vn -0.2530 0.9625 0.0983
vn -0.0303 0.9829 0.1816
vn -0.2395 0.9646 -0.1103
vn 0.0014 0.9990 -0.0441
vn 0.0985 0.8624 0.4966
vn 0.0623 0.9618 0.2664
vn 0.3287 0.8776 0.3490
vn 0.2311 0.9646 0.1266
vn 0.2689 0.9608 -0.0674
vn -0.1674 0.8765 -0.4515
vn -0.2735 0.8156 -0.5099
vn -0.1163 0.9603 -0.2534
vn -0.0500 0.7941 -0.6058
vn -0.0117 0.8736 -0.4865
vn -0.1403 0.9545 -0.2631
vn -0.0347 0.9551 -0.2942
vn 0.1476 0.9624 -0.2281
vn 0.1740 0.9179 -0.3565
vn 0.2366 0.7517 -0.6156
vn 0.2484 0.8775 -0.4102
vn 0.4226 0.7587 -0.4958
vn -0.5292 -0.1796 -0.8293
vn -0.4727 -0.2592 -0.8422
vn -0.6413 -0.2975 -0.7073
vn -0.6393 -0.5774 -0.5078
vn -0.4210 -0.3574 -0.8337
vn -0.4388 -0.2903 -0.8504
vn -0.4177 -0.4085 -0.8116
vn -0.5521 -0.8119 -0.1898
vn -0.3015 -0.6545 -0.6934
vn -0.3021 -0.8003 -0.5180
vn -0.5988 -0.7939 -0.1058
vn -0.7669 -0.6411 -0.0294
vn -0.7990 -0.5695 -0.1931
vn -0.6374 -0.7422 -0.2072
vn -0.5041 -0.8634 0.0231
vn -0.5301 -0.8414 0.1048
vn -0.5045 -0.8541 -0.1263
vn -0.4698 -0.8058 -0.3604
vn -0.2574 -0.5248 -0.8114
vn -0.5582 -0.2203 -0.7999
vn -0.4777 -0.7770 -0.4100
vn -0.2445 -0.5252 -0.8151
vn -0.5927 -0.5835 -0.5551
vn -0.4699 -0.8588 -0.2041
vn -0.4067 -0.7365 -0.5405
vn -0.8118 -0.5483 -0.2007
vn -0.6401 -0.5197 -0.5658
vn -0.8975 -0.2098 -0.3878
vn -0.8016 -0.2372 -0.5487
vn -0.9825 -0.1239 -0.1388
vn -0.9701 0.0031 -0.2426
vn -0.7747 -0.5575 -0.2984
vn -0.9477 -0.1909 -0.2557
vn -0.9609 0.1197 -0.2496
vn -0.4975 -0.8070 -0.3182
vn -0.9165 -0.3855 -0.1071
vn -0.9353 0.0335 -0.3523
vn -0.7202 -0.5697 -0.3958
vn -0.7794 -0.5708 -0.2582
vn -0.8792 -0.2313 -0.4166
vn -0.5470 -0.6143 -0.5688
vn -0.3075 -0.8757 -0.3724
vn -0.3888 -0.6375 -0.6652
vn -0.3979 -0.7368 -0.5466
vn -0.8623 -0.1804 -0.4732
vn -0.8843 0.0707 -0.4615
vn -0.6538 -0.2242 -0.7227
vn -0.4550 -0.3591 -0.8149
vn -0.8274 -0.0457 -0.5598
vn -0.8047 0.2004 -0.5589
vn -0.1861 -0.6916 -0.6979
vn -0.7554 -0.3540 -0.5514
vn -0.5962 0.1711 -0.7844
vn -0.6516 -0.1597 -0.7415
vn -0.6321 0.2320 -0.7394
vn -0.5535 0.3378 -0.7612
vn -0.3803 -0.1473 -0.9130
vn -0.4263 0.1254 -0.8958
vn 0.0723 0.1871 -0.9797
vn -0.3592 0.4565 -0.8140
vn -0.1337 0.2617 -0.9558
vn -0.4256 -0.1759 -0.8877
vn -0.6729 0.2409 -0.6995
vn -0.7537 0.2583 -0.6044
vn -0.7191 0.0851 -0.6897
vn -0.5143 0.0737 -0.8544
vn -0.9097 0.3592 -0.2084
vn -0.9540 -0.1483 -0.2606
vn -0.9778 0.1059 -0.1807
vn -0.9684 -0.1691 -0.1833
vn -0.9578 0.2596 -0.1230
vn -0.9536 0.0445 -0.2978
vn -0.7218 0.5339 -0.4404
vn -0.7930 0.6066 -0.0568
vn -0.9221 0.3866 -0.0175
vn -0.7396 0.6718 0.0419
vn -0.8246 -0.4950 -0.2738
vn -0.9306 -0.3555 -0.0868
vn -0.7428 0.6583 -0.1221
vn -0.7674 -0.6033 -0.2170
vn -0.8639 -0.3429 -0.3690
vn -0.8269 0.4614 -0.3215
vn -0.6107 0.7909 0.0389
vn -0.6607 -0.6277 -0.4117
vn -0.8653 -0.1379 -0.4819
vn -0.8697 0.1604 -0.4668
vn -0.6840 0.4543 -0.5708
vn -0.7715 0.0876 -0.6302
vn -0.4213 0.8954 -0.1442
vn -0.4539 0.8900 0.0431
vn -0.4352 0.8955 -0.0930
vn -0.4888 -0.8153 -0.3104
vn -0.4573 0.8512 -0.2573
vn -0.2410 0.9683 0.0661
vn -0.2264 0.9665 -0.1209
vn -0.2528 0.9123 -0.3223
vn 0.0412 0.9920 0.1194
vn 0.0028 0.9997 -0.0231
vn 0.0343 0.9947 0.0970
vn -0.0479 0.9845 -0.1685
vn -0.0025 0.9533 -0.3021
vn 0.2111 0.9494 -0.2326
vn 0.2762 0.9608 0.0215
vn 0.3380 0.9407 0.0279
vn -0.6440 0.6587 -0.3890
vn -0.7309 -0.3961 -0.5559
vn -0.7113 -0.2402 -0.6606
vn -0.4829 -0.3722 -0.7926
vn -0.4628 0.7206 -0.5163
vn -0.4734 -0.6742 -0.5669
vn -0.3838 0.5073 -0.7716
vn -0.5584 0.0866 -0.8250
vn -0.2452 -0.6432 -0.7254
vn -0.1633 -0.0974 -0.9818
vn -0.2583 0.7838 -0.5647
vn -0.0989 0.6222 -0.7766
vn 0.0553 -0.6089 -0.7913
vn -0.1195 -0.3574 -0.9263
vn -0.1399 0.2344 -0.9620
vn 0.0252 0.8840 -0.4668
vn 0.0268 0.7763 -0.6298
vn 0.2061 -0.1882 -0.9602
vn 0.0869 0.2647 -0.9604
vn 0.2786 0.7592 -0.5882
vn 0.0505 -0.5760 -0.8159
vn 0.3025 -0.4417 -0.8446
vn 0.3107 0.1422 -0.9398
vn 0.3217 0.5380 -0.7792
vn 0.2835 0.8804 -0.3801
vn 0.2904 -0.2852 -0.9134
vn 0.3237 -0.0352 0.9455
vn 0.5252 -0.4358 0.7309
vn 0.5239 -0.1494 0.8386
vn 0.6098 -0.2771 0.7425
vn 0.6491 -0.3569 0.6717
vn 0.7468 -0.1031 0.6570
vn 0.8090 0.0250 0.5873
vn 0.2594 -0.8847 0.3874
vn 0.4386 -0.6814 0.5860
vn 0.4136 -0.8938 0.1735
vn 0.5416 -0.7576 0.3643
vn 0.6081 -0.7892 0.0862
vn 0.6350 -0.6705 0.3836
vn 0.6788 -0.7078 0.1958
vn 0.6511 -0.7587 0.0212
vn 0.5493 -0.5403 0.6375
vn 0.6861 -0.5913 0.4239
vn 0.8230 -0.3410 0.4543
vn 0.7636 -0.6236 0.1674
vn 0.7857 -0.5538 0.2755
vn 0.8688 -0.2355 0.4357
vn 0.9363 -0.2804 0.2114
vn 0.9039 -0.3925 0.1699
vn 0.7781 -0.6250 -0.0627
vn 0.9866 -0.1247 0.1051
vn 0.9124 -0.4034 -0.0697
vn -0.0809 -0.9906 -0.1099
vn -0.2077 -0.9525 0.2229
vn 0.2557 -0.9393 -0.2289
vn 0.0900 -0.9844 0.1514
vn 0.5947 -0.7964 -0.1101
vn 0.4087 -0.9116 -0.0432
vn 0.0712 -0.9473 0.3122
vn 0.2201 -0.9118 0.3467
vn 0.5831 -0.8060 -0.1019
vn 0.4053 -0.8783 0.2537
vn 0.3147 -0.8388 0.4444
vn 0.2431 -0.8907 0.3841
vn 0.6739 -0.7291 -0.1193
vn 0.6707 -0.7385 0.0694
vn 0.5452 -0.7271 0.4173
vn 0.4378 -0.8421 0.3149
vn 0.5963 -0.6224 0.5071
vn 0.5665 -0.7967 0.2104
vn 0.7768 -0.6181 -0.1205
vn 0.8982 -0.4189 -0.1330
vn 0.7968 -0.5799 0.1696
vn 0.8905 -0.3951 0.2255
vn 0.6891 -0.5223 0.5023
vn 0.9695 -0.2370 -0.0626
vn 0.9724 -0.2109 0.0998
vn 0.9412 -0.3236 0.0966
vn 0.8127 -0.2493 0.5266
vn 0.9034 -0.0328 0.4276
vn 0.9178 -0.1542 0.3659
vn 0.9163 -0.1127 0.3843
vn 0.9665 -0.2217 0.1294
vn 0.7550 -0.5825 0.3011
vn 0.8180 -0.3698 0.4406
vn 0.8018 -0.3805 0.4608
vn 0.7550 -0.4532 0.4739
vn 0.9367 0.0404 0.3479
vn 0.8744 -0.0198 0.4849
vn 0.8003 -0.3542 0.4838
vn 0.7844 -0.4023 0.4720
vn 0.8052 -0.4821 0.3451
vn 0.9201 -0.2198 0.3241
vn 0.8627 -0.3331 0.3805
vn 0.9197 -0.3534 0.1711
vn 0.9620 -0.2274 0.1512
vn 0.9303 -0.0394 0.3647
vn 0.4323 0.6133 0.6610
vn 0.5051 0.3030 0.8081
vn 0.5622 0.4039 0.7216
vn 0.5217 0.5593 0.6442
vn 0.5139 0.1316 0.8477
vn 0.7125 0.1081 0.6933
vn 0.6407 0.2910 0.7105
vn 0.7267 0.2824 0.6263
vn 0.8443 0.2580 0.4697
vn 0.6915 0.5376 0.4825
vn 0.8556 0.3233 0.4042
vn 0.7516 0.6198 0.2257
vn 0.9180 0.1350 0.3730
vn 0.8572 0.4302 0.2831
vn 0.9362 0.2701 0.2247
vn 0.8391 0.5157 0.1728
vn 0.8688 0.4931 -0.0450
vn 0.4450 0.7504 0.4888
vn 0.3972 0.8931 0.2111
vn 0.4647 0.7431 0.4816
vn 0.6001 0.7458 0.2894
vn 0.4510 0.8874 -0.0955
vn 0.6759 0.7330 -0.0765
vn 0.5979 0.7842 0.1659
vn 0.4317 0.8019 -0.4130
vn 0.5647 0.7881 -0.2449
vn 0.4718 0.6685 -0.5749
vn 0.6254 0.7318 -0.2709
vn 0.6872 0.6994 -0.1962
vn 0.5850 0.6664 -0.4624
vn 0.7180 0.5996 -0.3534
vn 0.5711 0.6121 -0.5470
vn 0.7598 0.6030 -0.2433
vn 0.7520 0.6046 -0.2626
vn 0.3413 0.9288 -0.1443
vn 0.8385 0.4835 -0.2512
vn 0.5094 0.8603 -0.0183
vn 0.9274 0.3160 -0.1999
vn 0.8436 0.4956 -0.2068
vn 0.9063 0.4165 -0.0721
vn 0.8334 0.5423 0.1062
vn 0.7847 0.6153 -0.0753
vn 0.4600 0.7311 -0.5039
vn 0.3906 0.8789 -0.2739
vn 0.6171 0.7414 -0.2638
vn 0.5337 0.7662 -0.3579
vn 0.9938 0.0681 0.0877
vn 0.9605 0.2748 0.0444
vn 0.9975 0.0438 0.0549
vn 0.9649 0.2486 -0.0846
vn 0.9171 -0.0324 0.3974
vn 0.9308 0.3316 0.1539
vn 0.8126 0.3319 0.4790
vn 0.5786 0.7507 0.3190
vn 0.4505 0.8747 0.1786
vn 0.6160 0.6606 0.4292
vn 0.8366 -0.1390 0.5298
vn 0.7971 0.3087 0.5190
vn 0.7079 0.6693 0.2256
vn 0.9230 0.0919 0.3737
vn 0.9271 0.3745 0.0149
vn -0.3270 -0.9449 0.0153
vn -0.1091 -0.9845 -0.1374
vn -0.1923 -0.9487 -0.2511
vn -0.0949 -0.9783 0.1844
vn -0.0633 -0.9977 0.0221
vn 0.0333 -0.9344 -0.3547
vn 0.1251 -0.9876 0.0953
vn 0.2483 -0.9551 0.1619
vn 0.1422 -0.9853 -0.0947
vn 0.2975 -0.9544 -0.0239
vn 0.2197 -0.9542 -0.2030
vn 0.4720 -0.8769 0.0910
vn 0.4360 -0.8963 -0.0808
vn 0.3402 -0.8737 -0.3477
vn 0.5097 -0.8320 -0.2193
vn 0.6179 0.6084 -0.4981
vn -0.1303 -0.8511 -0.5085
vn -0.0743 -0.6419 -0.7632
vn 0.2648 -0.6506 -0.7117
vn 0.1111 -0.8317 -0.5439
vn 0.3601 -0.8099 -0.4631
vn 0.7045 -0.6254 -0.3356
vn 0.5103 -0.6782 -0.5288
vn -0.2752 -0.4306 -0.8596
vn -0.3130 0.3270 -0.8917
vn -0.1946 -0.0666 -0.9786
vn 0.0714 0.7421 -0.6665
vn -0.1252 0.4793 -0.8687
vn -0.1109 0.6550 -0.7474
vn 0.1648 -0.4391 -0.8832
vn 0.0926 -0.1865 -0.9781
vn 0.0096 0.2468 -0.9690
vn 0.1289 0.8044 -0.5799
vn 0.2310 0.0549 -0.9714
vn 0.2549 0.4706 -0.8447
vn 0.2438 0.7315 -0.6368
vn 0.3576 0.7702 -0.5281
vn 0.4664 -0.4738 -0.7470
vn 0.3956 -0.2022 -0.8959
vn 0.4536 0.0772 -0.8879
vn 0.4477 0.7823 -0.4331
vn 0.5042 0.5564 -0.6604
vn 0.6651 -0.2275 -0.7112
vn 0.5751 0.3438 -0.7423
vn 0.6354 -0.5404 -0.5516
vn 0.6185 0.6260 -0.4750
vn 0.6785 0.0524 -0.7327
vn 0.7251 0.3301 -0.6043
vn 0.6482 -0.7547 0.1012
vn 0.6254 -0.7768 -0.0735
vn 0.8442 -0.5288 0.0880
vn 0.8485 0.2646 -0.4583
vn 0.7818 0.5399 -0.3118
vn 0.9310 0.2370 -0.2776
vn 0.8822 -0.4217 -0.2094
vn 0.8829 0.3018 -0.3598
vn 0.9885 0.0770 0.1298
vn 0.9559 -0.2823 -0.0808
vn 0.9696 -0.2209 0.1053
vn 0.9933 0.0420 0.1078
vn 0.9939 -0.0000 -0.1098
vn 0.8483 -0.5265 -0.0570
vn 0.9163 -0.1206 -0.3819
vn 0.9799 0.0971 -0.1741
vn 0.9693 -0.2077 -0.1313
vn 0.9072 -0.2251 -0.3553
vn 0.9223 0.0434 -0.3840
vn 0.8420 -0.1207 -0.5258
vn 0.8170 0.3679 -0.4441
vn 0.8530 0.1023 -0.5118
vn 0.8211 -0.3700 -0.4347
vn 0.4544 0.8906 0.0168
vn 0.4966 0.8483 -0.1841
vn 0.4922 0.8658 0.0903
vn 0.7109 0.7032 -0.0082
vn 0.5571 0.8216 0.1209
vn 0.6750 0.7106 -0.1988
vn 0.6994 0.7147 0.0053
vn 0.7567 0.6269 -0.1853
vn 0.8042 0.5537 -0.2161
vn 0.7904 0.4406 -0.4255
vn 0.3818 0.9232 -0.0436
vn 0.4395 0.8894 -0.1256
vn 0.5663 0.7464 -0.3496
vn 0.4707 0.6863 -0.5545
vn 0.4240 0.5376 -0.7289
vn 0.4497 0.5331 -0.7166
vn 0.3245 0.8639 -0.3853
vn 0.4123 0.6212 -0.6664
vn 0.3310 0.6932 -0.6402
vn 0.3053 0.9516 -0.0344
vn 0.3558 0.9044 -0.2355
vn 0.5098 0.4149 -0.7536
vn 0.4169 0.4973 -0.7609
vn 0.4955 0.8647 -0.0815
vn 0.2669 0.0009 -0.9637
vn 0.7167 0.4832 -0.5029
vn 0.5499 -0.3065 -0.7769
vn 0.5611 -0.1357 -0.8166
vn 0.5901 0.2430 -0.7699
vn 0.6224 0.6889 -0.3717
vn 0.3275 0.4922 -0.8065
vn 0.5849 -0.0758 -0.8075
vn 0.7371 -0.1534 -0.6582
vn 0.7303 -0.1394 -0.6687
vn 0.8009 0.2139 -0.5593
vn 0.5310 0.2575 -0.8073
vn 0.8390 0.1107 -0.5327
vn 0.8788 0.2756 -0.3895
vn 0.2618 0.6820 -0.6829
vn 0.5250 0.4876 -0.6976
vn 0.4757 0.8791 -0.0292
vn 0.5783 0.6693 -0.4665
vn 0.7185 0.2001 -0.6661
vn 0.7119 0.2423 -0.6591
vn 0.6850 0.6773 -0.2682
vn 0.6986 0.7145 -0.0370
vn 0.9465 0.0953 -0.3084
vn 0.7986 0.3358 -0.4995
s 1
f 23//23 1//1 2//2
f 25//25 4//4 3//3
f 25//25 3//3 18//18
f 6//6 51//51 54//54
f 16//16 10//10 11//11
f 17//17 16//16 11//11
f 1//1 19//19 18//18
f 20//20 21//21 19//19
f 20//20 19//19 1//1
f 23//23 22//22 21//21
f 19//19 24//24 18//18
f 21//21 22//22 26//26
f 26//26 25//25 24//24
f 25//25 5//5 4//4
f 28//28 27//27 25//25
f 12//12 9//9 29//29
f 13//13 12//12 30//30
f 32//32 31//31 42//42
f 30//30 33//33 13//13
f 32//32 33//33 30//30
f 35//35 34//34 23//23
f 40//40 35//35 2//2
f 29//29 34//34 36//36
f 35//35 36//36 34//34
f 39//39 35//35 40//40
f 37//37 29//29 36//36
f 38//38 36//36 39//39
f 12//12 29//29 37//37
f 44//44 42//42 45//45
f 47//47 49//49 53//53
f 48//48 49//49 47//47
f 51//51 8//8 52//52
f 53//53 8//8 46//46
f 51//51 55//55 54//54
f 52//52 53//53 56//56
f 58//58 55//55 52//52
f 57//57 54//54 55//55
f 61//61 49//49 50//50
f 16//16 46//46 14//14
f 62//62 47//47 46//46
f 62//62 46//46 16//16
f 64//64 17//17 15//15
f 62//62 48//48 47//47
f 63//63 65//65 62//62
f 63//63 66//66 65//65
f 64//64 66//66 63//63
f 50//50 48//48 70//70
f 65//65 70//70 48//48
f 68//68 70//70 65//65
f 69//69 71//71 67//67
f 71//71 313//313 66//66
f 74//74 64//64 13//13
f 33//33 74//74 13//13
f 73//73 72//72 32//32
f 76//76 74//74 72//72
f 67//67 64//64 74//74
f 76//76 80//80 79//79
f 76//76 82//82 67//67
f 80//80 83//83 79//79
f 84//84 80//80 81//81
f 86//86 79//79 83//83
f 87//87 83//83 80//80
f 2//2 88//88 102//102
f 89//89 92//92 93//93
f 93//93 92//92 94//94
f 90//90 94//94 96//96
f 95//95 92//92 97//97
f 96//96 95//95 97//97
f 88//88 99//99 103//103
f 100//100 88//88 101//101
f 101//101 108//108 105//105
f 99//99 18//18 89//89
f 103//103 99//99 89//89
f 103//103 90//90 104//104
f 104//104 107//107 108//108
f 108//108 109//109 105//105
f 90//90 91//91 107//107
f 107//107 91//91 110//110
f 109//109 107//107 110//110
f 111//111 112//112 113//113
f 110//110 98//98 116//116
f 114//114 110//110 116//116
f 116//116 98//98 138//138
f 40//40 2//2 120//120
f 121//121 118//118 106//106
f 121//121 119//119 118//118
f 127//127 121//121 106//106
f 120//120 126//126 122//122
f 123//123 121//121 125//125
f 128//128 126//126 120//120
f 128//128 120//120 123//123
f 128//128 123//123 125//125
f 40//40 122//122 126//126
f 126//126 128//128 238//238
f 130//130 128//128 125//125
f 125//125 127//127 129//129
f 131//131 130//130 125//125
f 130//130 132//132 238//238
f 131//131 132//132 130//130
f 106//106 124//124 135//135
f 129//129 127//127 135//135
f 124//124 113//113 136//136
f 113//113 115//115 117//117
f 129//129 133//133 125//125
f 136//136 117//117 137//137
f 142//142 92//92 141//141
f 139//139 97//97 142//142
f 92//92 54//54 141//141
f 139//139 143//143 146//146
f 152//152 144//144 147//147
f 145//145 148//148 149//149
f 151//151 138//138 140//140
f 153//153 152//152 147//147
f 153//153 147//147 150//150
f 115//115 154//154 155//155
f 155//155 154//154 156//156
f 157//157 155//155 158//158
f 156//156 154//154 151//151
f 160//160 151//151 159//159
f 158//158 156//156 162//162
f 160//160 161//161 162//162
f 137//137 165//165 134//134
f 137//137 164//164 165//165
f 117//117 155//155 157//157
f 166//166 117//117 157//157
f 164//164 117//117 166//166
f 165//165 164//164 167//167
f 170//170 166//166 158//158
f 168//168 170//170 171//171
f 169//169 167//167 172//172
f 173//173 174//174 175//175
f 175//175 403//403 401//401
f 126//126 41//41 40//40
f 177//177 45//45 176//176
f 180//180 44//44 45//45
f 180//180 45//45 177//177
f 182//182 177//177 178//178
f 179//179 182//182 178//178
f 81//81 78//78 185//185
f 191//191 190//190 187//187
f 188//188 189//189 187//187
f 190//190 84//84 81//81
f 192//192 189//189 193//193
f 84//84 191//191 333//333
f 438//438 191//191 192//192
f 195//195 180//180 177//177
f 181//181 195//195 177//177
f 196//196 182//182 179//179
f 183//183 196//196 179//179
f 194//194 197//197 184//184
f 195//195 197//197 194//194
f 198//198 181//181 182//182
f 267//267 199//199 183//183
f 200//200 184//184 197//197
f 201//201 200//200 202//202
f 201//201 202//202 203//203
f 204//204 195//195 181//181
f 204//204 198//198 207//207
f 209//209 205//205 206//206
f 199//199 207//207 196//196
f 201//201 186//186 200//200
f 187//187 186//186 201//201
f 211//211 201//201 205//205
f 208//208 211//211 205//205
f 188//188 208//208 213//213
f 212//212 207//207 214//214
f 189//189 188//188 213//213
f 214//214 215//215 212//212
f 213//213 208//208 220//220
f 210//210 215//215 214//214
f 225//225 221//221 215//215
f 225//225 215//215 222//222
f 222//222 228//228 225//225
f 223//223 228//228 222//222
f 227//227 224//224 229//229
f 224//224 225//225 230//230
f 230//230 225//225 228//228
f 226//226 232//232 223//223
f 230//230 233//233 229//229
f 218//218 216//216 229//229
f 233//233 237//237 229//229
f 132//132 239//239 238//238
f 240//240 241//241 126//126
f 242//242 239//239 132//132
f 245//245 242//242 246//246
f 178//178 177//177 241//241
f 240//240 178//178 241//241
f 179//179 178//178 252//252
f 253//253 252//252 243//243
f 246//246 242//242 250//250
f 250//250 251//251 254//254
f 252//252 253//253 255//255
f 251//251 249//249 258//258
f 260//260 247//247 261//261
f 262//262 261//261 257//257
f 263//263 260//260 261//261
f 254//254 266//266 268//268
f 259//259 267//267 183//183
f 264//264 134//134 165//165
f 265//265 258//258 264//264
f 264//264 165//165 169//169
f 264//264 169//169 269//269
f 271//271 270//270 276//276
f 274//274 278//278 272//272
f 278//278 172//172 401//401
f 282//282 281//281 263//263
f 287//287 282//282 263//263
f 285//285 259//259 281//281
f 283//283 285//285 281//281
f 287//287 283//283 282//282
f 285//285 219//219 267//267
f 283//283 288//288 285//285
f 289//289 283//283 287//287
f 290//290 291//291 286//286
f 226//226 219//219 288//288
f 290//290 296//296 291//291
f 296//296 290//290 295//295
f 292//292 226//226 288//288
f 293//293 292//292 288//288
f 289//289 297//297 293//293
f 292//292 301//301 300//300
f 291//291 303//303 298//298
f 305//305 234//234 236//236
f 301//301 305//305 300//300
f 61//61 307//307 60//60
f 309//309 307//307 321//321
f 308//308 309//309 311//311
f 310//310 311//311 309//309
f 315//315 313//313 71//71
f 70//70 314//314 50//50
f 315//315 316//316 70//70
f 316//316 318//318 321//321
f 314//314 321//321 61//61
f 322//322 321//321 318//318
f 311//311 310//310 323//323
f 323//323 322//322 325//325
f 318//318 319//319 324//324
f 320//320 324//324 319//319
f 331//331 330//330 328//328
f 82//82 85//85 69//69
f 332//332 86//86 83//83
f 333//333 332//332 87//87
f 334//334 82//82 86//86
f 333//333 335//335 332//332
f 340//340 336//336 337//337
f 337//337 82//82 334//334
f 335//335 338//338 339//339
f 333//333 338//338 335//335
f 341//341 340//340 337//337
f 320//320 317//317 336//336
f 344//344 336//336 340//340
f 342//342 341//341 339//339
f 345//345 344//344 340//340
f 342//342 346//346 341//341
f 343//343 347//347 342//342
f 345//345 350//350 344//344
f 329//329 320//320 344//344
f 350//350 331//331 329//329
f 350//350 351//351 331//331
f 346//346 352//352 345//345
f 354//354 352//352 346//346
f 354//354 346//346 348//348
f 327//327 361//361 326//326
f 362//362 330//330 355//355
f 357//357 362//362 355//355
f 357//357 360//360 364//364
f 364//364 362//362 357//357
f 354//354 348//348 358//358
f 366//366 360//360 365//365
f 368//368 365//365 360//360
f 364//364 366//366 370//370
f 366//366 365//365 371//371
f 370//370 366//366 371//371
f 372//372 367//367 358//358
f 372//372 369//369 363//363
f 368//368 367//367 376//376
f 375//375 371//371 374//374
f 149//149 148//148 150//150
f 150//150 377//377 153//153
f 150//150 378//378 379//379
f 377//377 150//150 379//379
f 153//153 377//377 380//380
f 381//381 306//306 308//308
f 378//378 148//148 381//381
f 378//378 381//381 383//383
f 383//383 381//381 382//382
f 379//379 383//383 384//384
f 384//384 380//380 379//379
f 396//396 380//380 386//386
f 385//385 384//384 382//382
f 389//389 382//382 312//312
f 390//390 387//387 391//391
f 382//382 389//389 385//385
f 161//161 394//394 397//397
f 161//161 397//397 395//395
f 397//397 394//394 396//396
f 398//398 400//400 399//399
f 388//388 397//397 386//386
f 392//392 400//400 388//388
f 399//399 400//400 392//392
f 402//402 403//403 405//405
f 403//403 419//419 408//408
f 406//406 404//404 405//405
f 408//408 406//406 403//403
f 407//407 409//409 412//412
f 407//407 412//412 410//410
f 406//406 408//408 410//410
f 409//409 415//415 412//412
f 418//418 412//412 414//414
f 410//410 413//413 406//406
f 414//414 424//424 426//426
f 414//414 426//426 416//416
f 430//430 418//418 417//417
f 413//413 418//418 430//430
f 174//174 163//163 420//420
f 419//419 403//403 175//175
f 420//420 163//163 398//398
f 401//401 403//403 402//402
f 175//175 422//422 419//419
f 421//421 398//398 399//399
f 420//420 421//421 422//422
f 419//419 422//422 408//408
f 399//399 415//415 421//421
f 426//426 424//424 425//425
f 362//362 425//425 330//330
f 428//428 416//416 426//426
f 427//427 362//362 364//364
f 430//430 417//417 429//429
f 432//432 430//430 429//429
f 434//434 432//432 429//429
f 441//441 338//338 333//333
f 444//444 338//338 441//441
f 442//442 444//444 441//441
f 439//439 446//446 442//442
f 444//444 445//445 338//338
f 448//448 447//447 446//446
f 448//448 446//446 443//443
f 445//445 347//347 343//343
f 448//448 450//450 447//447
f 449//449 349//349 347//347
f 452//452 450//450 451//451
f 217//217 440//440 192//192
f 454//454 443//443 440//440
f 456//456 457//457 455//455
f 458//458 451//451 457//457
f 460//460 458//458 456//456
f 460//460 451//451 458//458
f 460//460 459//459 451//451
f 461//461 218//218 229//229
f 235//235 462//462 233//233
f 466//466 235//235 234//234
f 237//237 461//461 229//229
f 455//455 218//218 461//461
f 461//461 467//467 455//455
f 465//465 469//469 462//462
f 467//467 456//456 455//455
f 472//472 469//469 465//465
f 469//469 471//471 463//463
f 476//476 467//467 468//468
f 472//472 471//471 469//469
f 472//472 466//466 473//473
f 473//473 470//470 474//474
f 479//479 472//472 473//473
f 475//475 460//460 456//456
f 483//483 479//479 473//473
f 481//481 477//477 472//472
f 482//482 460//460 475//475
f 480//480 482//482 475//475
f 476//476 480//480 475//475
f 481//481 479//479 485//485
f 487//487 488//488 486//486
f 492//492 499//499 459//459
f 374//374 376//376 494//494
f 496//496 372//372 488//488
f 494//494 367//367 497//497
f 495//495 374//374 498//498
f 498//498 494//494 497//497
f 497//497 496//496 502//502
f 501//501 498//498 497//497
f 500//500 498//498 491//491
f 491//491 501//501 493//493
f 503//503 502//502 492//492
f 482//482 459//459 460//460
f 480//480 505//505 508//508
f 485//485 507//507 484//484
f 508//508 459//459 482//482
f 506//506 493//493 507//507
f 505//505 507//507 503//503
f 503//503 492//492 508//508
f 512//512 402//402 405//405
f 511//511 402//402 513//513
f 532//532 513//513 512//512
f 514//514 512//512 517//517
f 405//405 404//404 515//515
f 512//512 515//515 516//516
f 518//518 517//517 516//516
f 517//517 518//518 546//546
f 519//519 404//404 411//411
f 522//522 518//518 521//521
f 523//523 548//548 518//518
f 523//523 518//518 522//522
f 521//521 520//520 525//525
f 525//525 522//522 521//521
f 522//522 527//527 523//523
f 527//527 522//522 525//525
f 523//523 527//527 531//531
f 528//528 411//411 413//413
f 527//527 550//550 531//531
f 279//279 278//278 509//509
f 510//510 277//277 532//532
f 513//513 279//279 511//511
f 532//532 279//279 513//513
f 533//533 234//234 305//305
f 535//535 542//542 540//540
f 537//537 536//536 302//302
f 464//464 234//234 533//533
f 464//464 533//533 539//539
f 514//514 517//517 538//538
f 541//541 544//544 540//540
f 545//545 544//544 541//541
f 464//464 539//539 547//547
f 546//546 518//518 545//545
f 547//547 544//544 548//548
f 524//524 548//548 523//523
f 470//470 547//547 474//474
f 526//526 474//474 548//548
f 474//474 526//526 478//478
f 478//478 526//526 453//453
f 529//529 528//528 549//549
f 453//453 530//530 551//551
f 550//550 529//529 553//553
f 554//554 435//435 437//437
f 554//554 437//437 553//553
f 500//500 555//555 495//495
f 553//553 555//555 556//556
f 555//555 500//500 489//489
f 556//556 555//555 489//489
f 3//3 4//4 6//6
f 4//4 5//5 6//6
f 6//6 7//7 8//8
f 5//5 7//7 6//6
f 27//27 7//7 5//5
f 51//51 6//6 8//8
f 8//8 7//7 27//27
f 46//46 27//27 14//14
f 46//46 8//8 27//27
f 9//9 12//12 11//11
f 28//28 11//11 10//10
f 28//28 26//26 22//22 9//9
f 10//10 16//16 14//14
f 10//10 14//14 27//27
f 15//15 17//17 11//11
f 13//13 64//64 15//15
f 23//23 21//21 20//20
f 23//23 20//20 1//1
f 21//21 26//26 24//24
f 19//19 21//21 24//24
f 18//18 24//24 25//25
f 26//26 28//28 25//25
f 39//39 43//43 42//42 38//38
f 28//28 10//10 27//27
f 9//9 11//11 28//28
f 5//5 25//25 27//27
f 31//31 30//30 12//12
f 31//31 32//32 30//30
f 42//42 73//73 32//32
f 34//34 22//22 23//23
f 2//2 35//35 23//23
f 29//29 9//9 22//22
f 34//34 29//29 22//22
f 38//38 37//37 36//36
f 39//39 36//36 35//35
f 41//41 39//39 40//40
f 31//31 12//12 37//37
f 38//38 31//31 37//37
f 42//42 31//31 38//38
f 61//61 60//60 56//56 49//49
f 43//43 39//39 41//41
f 41//41 45//45 43//43
f 43//43 45//45 42//42
f 44//44 73//73 42//42
f 47//47 53//53 46//46
f 50//50 49//49 48//48
f 52//52 8//8 53//53
f 55//55 51//51 52//52
f 53//53 49//49 56//56
f 58//58 52//52 56//56
f 57//57 55//55 58//58
f 59//59 57//57 58//58
f 60//60 59//59 58//58
f 58//58 56//56 60//60
f 62//62 16//16 17//17 63//63
f 76//76 72//72 75//75 77//77
f 17//17 64//64 63//63
f 65//65 48//48 62//62
f 64//64 67//67 66//66
f 66//66 68//68 65//65
f 67//67 71//71 66//66
f 66//66 313//313 68//68
f 72//72 74//74 33//33
f 32//32 72//72 33//33
f 73//73 75//75 72//72
f 78//78 75//75 73//73
f 71//71 69//69 85//85 315//315
f 75//75 78//78 77//77
f 76//76 67//67 74//74
f 78//78 81//81 77//77
f 77//77 80//80 76//76
f 81//81 80//80 77//77
f 82//82 69//69 67//67
f 6//6 92//92 89//89 3//3
f 79//79 82//82 76//76
f 79//79 86//86 82//82
f 84//84 87//87 80//80
f 2//2 1//1 88//88
f 18//18 3//3 89//89
f 90//90 93//93 94//94
f 99//99 88//88 1//1 18//18
f 91//91 90//90 96//96
f 94//94 92//92 96//96
f 96//96 92//92 95//95
f 91//91 96//96 98//98
f 92//92 6//6 54//54
f 96//96 97//97 98//98
f 114//114 116//116 154//154 115//115
f 88//88 103//103 104//104
f 100//100 102//102 88//88
f 108//108 88//88 104//104
f 101//101 88//88 108//108
f 100//100 101//101 105//105
f 106//106 100//100 105//105
f 103//103 89//89 93//93
f 103//103 93//93 90//90
f 104//104 90//90 107//107
f 106//106 105//105 111//111
f 109//109 108//108 107//107
f 105//105 109//109 112//112
f 110//110 91//91 98//98
f 111//111 105//105 112//112
f 113//113 106//106 111//111
f 114//114 109//109 110//110
f 114//114 112//112 109//109
f 115//115 112//112 114//114
f 113//113 112//112 115//115
f 118//118 119//119 2//2 102//102
f 118//118 102//102 100//100
f 137//137 134//134 133//133 129//129
f 119//119 120//120 2//2
f 106//106 118//118 100//100
f 120//120 122//122 40//40
f 123//123 119//119 121//121
f 120//120 119//119 123//123
f 125//125 121//121 127//127
f 130//130 238//238 128//128
f 133//133 131//131 125//125
f 113//113 124//124 106//106
f 106//106 135//135 127//127
f 135//135 124//124 136//136
f 136//136 113//113 117//117
f 129//129 135//135 136//136
f 129//129 136//136 137//137
f 98//98 139//139 140//140 138//138
f 97//97 92//92 142//142
f 98//98 97//97 139//139
f 57//57 145//145 141//141 54//54
f 139//139 142//142 143//143
f 143//143 142//142 141//141
f 140//140 139//139 144//144
f 146//146 149//149 150//150 147//147
f 143//143 141//141 145//145
f 147//147 139//139 146//146
f 147//147 144//144 139//139
f 145//145 57//57 59//59
f 146//146 143//143 145//145
f 146//146 145//145 149//149
f 145//145 59//59 306//306
f 148//148 145//145 306//306
f 168//168 174//174 173//173 167//167
f 152//152 140//140 144//144
f 151//151 116//116 138//138
f 151//151 154//154 116//116
f 155//155 117//117 115//115
f 158//158 155//155 156//156
f 152//152 151//151 140//140
f 160//160 156//156 151//151
f 159//159 151//151 152//152
f 162//162 156//156 160//160
f 159//159 152//152 153//153
f 160//160 159//159 161//161
f 163//163 158//158 162//162
f 394//394 159//159 153//153
f 161//161 159//159 394//394
f 137//137 117//117 164//164
f 168//168 167//167 164//164
f 166//166 157//157 158//158
f 170//170 164//164 166//166
f 167//167 169//169 165//165
f 168//168 164//164 170//170
f 170//170 158//158 171//171
f 163//163 171//171 158//158
f 168//168 171//171 174//174
f 172//172 173//173 175//175 401//401
f 173//173 172//172 167//167
f 174//174 171//171 163//163
f 81//81 185//185 186//186 190//190
f 176//176 41//41 126//126
f 176//176 45//45 41//41
f 184//184 73//73 44//44
f 182//182 181//181 177//177
f 44//44 180//180 194//194 184//184
f 187//187 190//190 186//186
f 187//187 192//192 191//191
f 189//189 192//192 187//187
f 191//191 84//84 190//190
f 438//438 333//333 191//191
f 78//78 73//73 184//184 185//185
f 195//195 194//194 180//180
f 196//196 198//198 182//182
f 183//183 199//199 196//196
f 204//204 206//206 205//205 203//203
f 184//184 200//200 185//185
f 197//197 202//202 200//200
f 195//195 202//202 197//197
f 203//203 202//202 195//195
f 204//204 203//203 195//195
f 198//198 204//204 181//181
f 205//205 201//201 203//203
f 209//209 221//221 220//220 208//208
f 196//196 207//207 198//198
f 209//209 208//208 205//205
f 199//199 210//210 207//207
f 267//267 210//210 199//199
f 200//200 186//186 185//185
f 211//211 187//187 201//201
f 207//207 206//206 204//204
f 188//188 187//187 211//211
f 208//208 188//188 211//211
f 212//212 209//209 206//206
f 212//212 206//206 207//207
f 210//210 214//214 207//207
f 213//213 193//193 189//189
f 213//213 216//216 193//193
f 193//193 217//217 192//192
f 216//216 218//218 193//193
f 267//267 219//219 210//210
f 209//209 212//212 215//215 221//221
f 215//215 210//210 219//219 222//222
f 227//227 213//213 220//220
f 228//228 223//223 232//232 231//231
f 223//223 222//222 219//219
f 224//224 227//227 220//220
f 224//224 220//220 221//221
f 225//225 224//224 221//221
f 219//219 226//226 223//223
f 227//227 216//216 213//213
f 230//230 229//229 224//224
f 231//231 232//232 236//236 235//235
f 227//227 229//229 216//216
f 230//230 228//228 231//231
f 231//231 235//235 230//230
f 239//239 244//244 243//243 240//240
f 230//230 235//235 233//233
f 240//240 126//126 238//238
f 239//239 240//240 238//238
f 131//131 248//248 132//132
f 241//241 176//176 126//126
f 241//241 177//177 176//176
f 243//243 244//244 245//245 253//253
f 244//244 239//239 242//242
f 248//248 133//133 249//249 242//242
f 245//245 244//244 242//242
f 246//246 247//247 245//245
f 131//131 133//133 248//248
f 242//242 132//132 248//248
f 249//249 251//251 250//250 242//242
f 243//243 178//178 240//240
f 253//253 245//245 256//256 255//255
f 252//252 178//178 243//243
f 254//254 246//246 250//250
f 247//247 260//260 256//256 245//245
f 257//257 247//247 246//246
f 257//257 246//246 254//254
f 249//249 133//133 134//134
f 258//258 249//249 134//134
f 183//183 179//179 252//252
f 255//255 183//183 252//252
f 259//259 183//183 255//255
f 260//260 263//263 281//281 256//256
f 257//257 261//261 247//247
f 256//256 259//259 255//255
f 280//280 257//257 254//254
f 280//280 262//262 257//257
f 281//281 259//259 256//256
f 269//269 270//270 266//266 265//265
f 262//262 263//263 261//261
f 258//258 134//134 264//264
f 265//265 251//251 258//258
f 266//266 254//254 251//251
f 280//280 254//254 268//268
f 266//266 251//251 265//265
f 265//265 264//264 269//269
f 266//266 270//270 271//271 268//268
f 169//169 172//172 274//274 269//269
f 270//270 269//269 273//273
f 277//277 276//276 275//275 273//273
f 272//272 269//269 274//274
f 273//273 269//269 272//272
f 275//275 270//270 273//273
f 275//275 276//276 270//270
f 287//287 263//263 262//262 286//286
f 274//274 172//172 278//278
f 279//279 272//272 278//278
f 273//273 272//272 279//279
f 279//279 277//277 273//273
f 283//283 281//281 282//282
f 284//284 280//280 268//268
f 259//259 285//285 267//267
f 262//262 284//284 286//286
f 262//262 280//280 284//284
f 289//289 294//294 298//298 297//297
f 284//284 268//268 271//271
f 290//290 284//284 271//271
f 285//285 288//288 219//219
f 290//290 286//286 284//284
f 293//293 288//288 283//283
f 289//289 293//293 283//283
f 287//287 294//294 289//289
f 286//286 294//294 287//287
f 291//291 294//294 286//286
f 293//293 297//297 292//292
f 291//291 298//298 294//294
f 296//296 299//299 303//303 291//291
f 300//300 232//232 226//226
f 296//296 295//295 299//299
f 292//292 300//300 226//226
f 297//297 301//301 292//292
f 303//303 302//302 298//298
f 232//232 300//300 305//305 236//236
f 298//298 302//302 297//297
f 276//276 277//277 304//304 295//295
f 297//297 536//536 301//301
f 302//302 536//536 297//297
f 271//271 295//295 290//290
f 295//295 271//271 276//276
f 304//304 299//299 295//295
f 324//324 325//325 322//322 318//318
f 306//306 59//59 60//60
f 314//314 61//61 50//50
f 321//321 307//307 61//61
f 306//306 60//60 308//308
f 308//308 60//60 307//307
f 309//309 308//308 307//307
f 11//11 12//12 13//13 15//15
f 309//309 321//321 310//310
f 68//68 313//313 70//70
f 313//313 315//315 70//70
f 70//70 321//321 314//314
f 316//316 321//321 70//70
f 315//315 317//317 316//316
f 317//317 319//319 316//316
f 319//319 318//318 316//316
f 317//317 320//320 319//319
f 310//310 321//321 322//322
f 323//323 310//310 322//322
f 326//326 323//323 328//328 327//327
f 326//326 311//311 323//323
f 361//361 311//311 326//326
f 361//361 312//312 311//311
f 328//328 323//323 325//325
f 324//324 329//329 331//331 328//328
f 328//328 325//325 324//324
f 320//320 329//329 324//324
f 328//328 330//330 327//327
f 334//334 86//86 332//332 335//335
f 87//87 332//332 83//83
f 87//87 84//84 333//333
f 315//315 85//85 336//336 317//317
f 85//85 82//82 337//337 336//336
f 334//334 335//335 339//339 337//337
f 342//342 339//339 338//338 343//343
f 339//339 341//341 337//337
f 336//336 344//344 320//320
f 345//345 340//340 341//341 346//346
f 350//350 352//352 353//353 351//351
f 342//342 347//347 346//346
f 347//347 348//348 346//346
f 347//347 349//349 348//348
f 350//350 329//329 344//344
f 350//350 345//345 352//352
f 355//355 351//351 353//353 356//356
f 354//354 353//353 352//352
f 355//355 330//330 331//331
f 351//351 355//355 331//331
f 353//353 358//358 359//359 356//356
f 356//356 357//357 355//355
f 354//354 358//358 353//353
f 360//360 359//359 367//367 368//368
f 359//359 360//360 356//356
f 360//360 357//357 356//356
f 330//330 361//361 327//327
f 349//349 363//363 348//348
f 366//366 364//364 360//360
f 369//369 358//358 348//348
f 358//358 367//367 359//359
f 365//365 373//373 374//374 371//371
f 363//363 369//369 348//348
f 372//372 358//358 369//369
f 368//368 373//373 365//365
f 386//386 384//384 385//385 387//387
f 375//375 370//370 371//371
f 373//373 368//368 376//376
f 374//374 373//373 376//376
f 378//378 150//150 148//148
f 148//148 306//306 381//381
f 383//383 379//379 378//378
f 308//308 382//382 381//381
f 380//380 377//377 379//379
f 382//382 308//308 311//311
f 382//382 384//384 383//383
f 382//382 311//311 312//312
f 386//386 380//380 384//384
f 387//387 385//385 389//389 391//391
f 361//361 389//389 312//312
f 390//390 386//386 387//387
f 391//391 424//424 392//392 390//390
f 388//388 386//386 390//390
f 393//393 399//399 392//392
f 392//392 388//388 390//390
f 380//380 396//396 394//394 153//153
f 393//393 392//392 424//424
f 162//162 395//395 398//398 163//163
f 162//162 161//161 395//395
f 418//418 413//413 410//410 412//412
f 398//398 395//395 400//400
f 400//400 395//395 397//397
f 397//397 396//396 386//386
f 388//388 400//400 397//397
f 406//406 405//405 403//403
f 411//411 404//404 406//406
f 421//421 415//415 409//409
f 407//407 421//421 409//409
f 407//407 410//410 408//408
f 407//407 408//408 422//422
f 411//411 406//406 413//413
f 415//415 399//399 393//393
f 393//393 424//424 414//414 415//415
f 416//416 417//417 418//418 414//414
f 414//414 412//412 415//415
f 389//389 361//361 330//330 423//423
f 431//431 413//413 430//430
f 175//175 174//174 420//420
f 421//421 420//420 398//398
f 422//422 175//175 420//420
f 422//422 421//421 407//407
f 425//425 427//427 428//428 426//426
f 423//423 391//391 389//389
f 423//423 424//424 391//391
f 425//425 423//423 330//330
f 425//425 424//424 423//423
f 362//362 427//427 425//425
f 428//428 429//429 417//417 416//416
f 429//429 428//428 427//427
f 429//429 427//427 433//433 434//434
f 427//427 364//364 370//370
f 433//433 427//427 370//370
f 370//370 375//375 436//436 433//433
f 431//431 430//430 432//432
f 432//432 434//434 436//436 435//435
f 438//438 192//192 440//440 439//439
f 436//436 437//437 435//435
f 431//431 432//432 435//435
f 436//436 434//434 433//433
f 375//375 437//437 436//436
f 439//439 442//442 438//438
f 445//445 444//444 446//446 447//447
f 438//438 441//441 333//333
f 442//442 441//441 438//438
f 440//440 443//443 439//439
f 442//442 446//446 444//444
f 443//443 446//446 439//439
f 445//445 447//447 450//450 449//449
f 445//445 343//343 338//338
f 449//449 347//347 445//445
f 465//465 462//462 235//235 466//466
f 448//448 451//451 450//450
f 452//452 487//487 450//450
f 218//218 217//217 193//193
f 454//454 217//217 218//218
f 217//217 454//454 440//440
f 218//218 455//455 454//454
f 457//457 443//443 454//454
f 455//455 457//457 454//454
f 443//443 451//451 448//448
f 457//457 451//451 443//443
f 456//456 458//458 457//457
f 451//451 459//459 452//452
f 236//236 234//234 235//235
f 463//463 461//461 237//237
f 233//233 463//463 237//237
f 461//461 463//463 468//468 467//467
f 466//466 234//234 464//464
f 462//462 463//463 233//233
f 466//466 472//472 465//465
f 470//470 473//473 466//466 464//464
f 462//462 469//469 463//463
f 476//476 468//468 471//471 477//477
f 463//463 471//471 468//468
f 476//476 477//477 484//484 480//480
f 467//467 475//475 456//456
f 467//467 476//476 475//475
f 472//472 477//477 471//471
f 483//483 473//473 474//474
f 479//479 481//481 472//472
f 483//483 474//474 478//478
f 483//483 485//485 479//479
f 486//486 449//449 450//450 487//487
f 484//484 481//481 485//485
f 477//477 481//481 484//484
f 486//486 363//363 349//349
f 449//449 486//486 349//349
f 491//491 493//493 490//490 489//489
f 452//452 459//459 487//487
f 499//499 488//488 487//487
f 459//459 499//499 487//487
f 488//488 363//363 486//486
f 489//489 500//500 491//491
f 367//367 372//372 496//496 497//497
f 490//490 453//453 489//489
f 367//367 494//494 376//376
f 374//374 495//495 375//375
f 363//363 488//488 372//372
f 502//502 503//503 504//504 501//501
f 494//494 498//498 374//374
f 499//499 496//496 488//488
f 499//499 502//502 496//496
f 500//500 495//495 498//498
f 501//501 497//497 502//502
f 501//501 491//491 498//498
f 492//492 502//502 499//499
f 507//507 505//505 480//480 484//484
f 504//504 493//493 501//501
f 483//483 453//453 490//490
f 483//483 478//478 453//453
f 482//482 480//480 508//508
f 485//485 483//483 506//506
f 401//401 402//402 511//511 509//509
f 459//459 508//508 492//492
f 505//505 503//503 508//508
f 507//507 504//504 503//503
f 507//507 493//493 504//504
f 506//506 490//490 493//493
f 506//506 483//483 490//490
f 507//507 485//485 506//506
f 532//532 512//512 514//514 510//510
f 512//512 513//513 402//402
f 515//515 520//520 521//521 516//516
f 515//515 512//512 405//405
f 517//517 512//512 516//516
f 515//515 404//404 519//519
f 515//515 519//519 520//520
f 528//528 529//529 520//520 519//519
f 516//516 521//521 518//518
f 528//528 519//519 411//411
f 523//523 526//526 524//524
f 526//526 523//523 531//531 530//530
f 525//525 520//520 529//529
f 305//305 301//301 535//535 533//533
f 530//530 453//453 526//526
f 509//509 278//278 401//401
f 277//277 279//279 532//532
f 279//279 509//509 511//511
f 538//538 534//534 299//299
f 538//538 299//299 304//304
f 535//535 540//540 533//533
f 542//542 536//536 537//537 543//543
f 301//301 542//542 535//535
f 534//534 303//303 299//299
f 536//536 542//542 301//301
f 303//303 537//537 302//302
f 540//540 539//539 533//533
f 540//540 542//542 541//541
f 546//546 534//534 538//538 517//517
f 537//537 534//534 543//543
f 537//537 303//303 534//534
f 547//547 539//539 540//540 544//544
f 514//514 538//538 510//510
f 546//546 545//545 542//542 543//543
f 541//541 542//542 545//545
f 431//431 549//549 528//528 413//413
f 543//543 534//534 546//546
f 545//545 518//518 548//548
f 545//545 548//548 544//544
f 470//470 464//464 547//547
f 474//474 547//547 548//548
f 526//526 548//548 524//524
f 510//510 538//538 304//304
f 510//510 304//304 277//277
f 431//431 435//435 554//554 549//549
f 550//550 525//525 529//529
f 550//550 527//527 525//525
f 552//552 551//551 530//530
f 531//531 550//550 552//552
f 531//531 552//552 530//530
f 453//453 551//551 489//489
f 553//553 529//529 549//549
f 552//552 556//556 489//489
f 552//552 550//550 556//556
f 552//552 489//489 551//551
f 553//553 437//437 555//555
f 554//554 553//553 549//549
f 556//556 550//550 553//553
f 495//495 555//555 375//375
f 555//555 437//437 375//375
