mtllib materials.mtl
v -0.07684506 0.13 0.03632955
v -0.08002654 0.13 -0.02864878
v -0.07202388 0.1852082 -0.02578392
v -0.06916055 0.1852082 0.03269658
v -0.02864879 0.13 0.08002654
v 0.03632954 0.13 0.07684506
v 0.03269657 0.04000008 0.06915993
v -0.02578391 0.04000008 0.07202328
v -0.03632957 0.13 -0.07684505
v -0.0326966 0.1852082 -0.06916057
v 0.02864879 0.13 -0.08002653
v 0.02578391 0.1852082 -0.0720239
v 0.07684505 0.13 -0.03632955
v 0.06916055 0.1852082 -0.03269662
v 0.08002654 0.13 0.0286488
v 0.07202387 0.1852082 0.0257839
v 0.03269657 0.1852082 0.06916053
v -0.02578391 0.1852082 0.07202388
v -0.03827643 0.2152082 -0.01370256
v -0.03675474 0.2152082 0.01737638
v -0.01737632 0.2152082 -0.03675468
v 0.01370263 0.2152082 -0.03827637
v 0.03675474 0.2152082 -0.01737624
v 0.03827643 0.2152082 0.01370269
v 0.0173763 0.2152082 0.03675481
v -0.01370263 0.2152082 0.03827652
v 0.07202387 0.04000008 0.02578331
v 0.06916055 0.04000008 -0.03269721
v 0.02578391 0.04000008 -0.07202449
v -0.0326966 0.04000008 -0.06916115
v -0.07202388 0.04000008 -0.02578451
v -0.06916055 0.04000008 0.03269599
v 0.04241174 -0.02999997 0.03845206
v 0.03845254 -0.02999997 -0.04241224
v -0.04241182 -0.02999997 -0.03845295
v -0.03845254 -0.02999997 0.04241131
v 0.0424117 -1.56 0.03845201
v -0.03845258 -1.56 0.04241125
v 0.03845249 -1.56 -0.0424123
v -0.04241186 -1.56 -0.03845301
vn -0.9888499 0.1408255 0.04841614
vn 0.04871867 -0.08693186 0.9950223
vn -0.733458 0.1408252 -0.6649869
vn -0.04841613 0.140825 -0.98885
vn 0.6649872 0.1408251 -0.7334579
vn 0.9888499 0.1408254 -0.04841612
vn 0.7334576 0.1408259 0.6649873
vn 0.04841651 0.1408257 0.9888498
vn -0.6649871 0.1408257 0.7334578
vn -0.6705733 0.7411163 0.03283293
vn -0.4973829 0.7411171 -0.4509499
vn -0.03283275 0.7411174 -0.6705722
vn 0.4509502 0.7411171 -0.4973825
vn 0.6705732 0.7411165 -0.03283268
vn 0.4973834 0.7411157 0.4509514
vn 0.03283299 0.7411156 0.6705742
vn -0.4509512 0.7411159 0.4973834
vn 2.606614E-08 1 -7.281222E-08
vn 0.738036 -0.08692972 0.6691383
vn 0.995023 -0.08692487 -0.04871845
vn 0.6691387 -0.0869201 -0.7380369
vn -0.04871854 -0.08691842 -0.9950235
vn -0.7380369 -0.08692069 -0.6691385
vn -0.9950229 -0.08692549 0.04871839
vn -0.6691382 -0.08693013 0.7380362
vn 0.04490414 -0.3960903 0.9171129
vn 0.9171119 -0.3960927 -0.04490356
vn -0.04490392 -0.3960941 -0.9171113
vn -0.9171123 -0.3960919 0.04490377
vn 0.04890305 -3.511064E-08 0.9988036
vn 0.7275738 -0.1884003 0.6596528
vn 0.6596522 -0.1884028 -0.7275736
vn -0.7275738 -0.1884027 -0.6596522
vn -0.6596527 -0.1884 0.727574
vn -0.9171123 -0.3960918 0.04490377
vn 0.04490325 -0.3960909 0.9171127
vn -0.04490374 -0.396094 -0.9171114
vn 0.9171122 -0.3960921 -0.04490285
vn 0.9988036 -2.709399E-08 -0.04890257
vn -0.04890361 4.178568E-08 -0.9988035
vn -0.9988036 2.685894E-08 0.04890353
vn -6.875121E-09 -1 1.920472E-08
vt -0.09189622 0.1675747
vt -0.08603667 0.1704012
vt -0.08875237 0.1752825
vt -0.09402596 0.1727387
vt 0.1669121 0.09557717
vt 0.1641749 0.1014789
vt 0.1561162 0.09738268
vt 0.1585797 0.09207112
vt -0.1601644 0.1037026
vt -0.1568007 0.1092711
vt -0.161742 0.1118759
vt -0.1647694 0.1068643
vt -0.1660419 0.09182646
vt -0.1633998 0.09777138
vt -0.1686277 0.0997389
vt -0.1710056 0.09438847
vt -0.1421603 0.1221357
vt -0.1383419 0.1274028
vt -0.1430477 0.1304125
vt -0.1464842 0.1256721
vt 0.1246035 0.1371954
vt 0.1295001 0.1329122
vt 0.1329267 0.1373236
vt 0.1285197 0.1411785
vt 0.1637559 0.08791866
vt 0.1664421 0.08199354
vt 0.1713866 0.08459234
vt 0.168969 0.08992496
vt 0.1546058 0.1079101
vt 0.1576512 0.1021613
vt 0.1624266 0.1050591
vt 0.1596857 0.110233
vt 0.101077 0.1616433
vt 0.1061592 0.157582
vt 0.1093863 0.1621413
vt 0.1048124 0.1657965
vt -0.04773754 0.1334298
vt -0.04210328 0.1350225
vt -0.04463883 0.1389493
vt -0.0476331 0.1381028
vt -0.1084387 0.08974493
vt -0.1049105 0.09441756
vt -0.1093031 0.09601548
vt -0.1111782 0.09353226
vt -0.1292365 0.03057458
vt -0.1286203 0.03639712
vt -0.1332082 0.03550333
vt -0.1335357 0.032409
vt -0.1067378 -0.05693348
vt -0.1101433 -0.05217069
vt -0.1129803 -0.05588552
vt -0.1111705 -0.05841666
vt 0.06350142 -0.0925055
vt 0.0587888 -0.09598012
vt 0.0625446 -0.09876263
vt 0.06504907 -0.09691608
vt 0.1132842 0.007836053
vt 0.1130619 0.001985219
vt 0.1175792 0.003186273
vt 0.1176973 0.006295645
vt 0.09550424 0.07889499
vt 0.0983447 0.07377508
vt 0.1015866 0.07714233
vt 0.1000771 0.07986327
vt 0.03900046 0.1295808
vt 0.04426537 0.1270191
vt 0.04498694 0.1316373
vt 0.04218895 0.1329987
vt -0.01254403 0.0128909
vt -0.009566015 0.0137929
vt -0.008098047 0.01653648
vt -0.009000042 0.01951449
vt -0.01174362 0.02098246
vt -0.01472163 0.02008046
vt -0.0161896 0.01733688
vt -0.01528761 0.01435887
vt 0.1637959 0.101636
vt 0.1605381 0.1072672
vt 0.1528811 0.1024617
vt 0.1558131 0.09739363
vt 0.09841089 0.1660504
vt 0.09265054 0.1690739
vt 0.08873988 0.1609235
vt 0.09392419 0.1582023
vt -0.1088609 0.159491
vt -0.1137824 0.1552364
vt -0.1076282 0.1486147
vt -0.1031988 0.1524438
vt -0.1586831 0.1078201
vt -0.1616683 0.1020399
vt -0.1534922 0.0981833
vt -0.1508055 0.1033855
vt -0.1649618 0.0939379
vt -0.1678031 0.08808556
vt -0.1595341 0.08443251
vt -0.1569769 0.08969961
vt -0.116482 0.1493032
vt -0.1216835 0.1453958
vt -0.1159974 0.138368
vt -0.111316 0.1418846
vt 0.1363833 0.13354
vt 0.1322228 0.1385414
vt 0.1254856 0.1325138
vt 0.1292299 0.1280126
vt 0.1585802 0.07031766
vt 0.1567364 0.07587482
vt 0.1491479 0.07453765
vt 0.06889707 0.1642041
vt 0.06338328 0.1661739
vt 0.06738762 0.156648
vt -0.1340255 0.1027247
vt -0.1369316 0.09764175
vt -0.1268511 0.09991366
vt -0.1601946 0.02559189
vt -0.1612529 0.01983328
vt -0.1524941 0.02531598
vt 0.1501823 0.09136593
vt 0.1466082 0.09863042
vt 0.009324133 0.03108723
vt 0.01289823 0.02382274
vt 0.1524161 0.1027052
vt 0.1493119 0.1076697
vt 0.1448205 0.1014086
vt -0.0918936 0.1584581
vt -0.09657639 0.1549434
vt -0.08995635 0.1510002
vt -0.1579108 0.08007732
vt -0.1601949 0.07468615
vt -0.1524899 0.07460122
vt 0.1427062 0.1082578
vt 0.1395919 0.1132159
vt 0.1351133 0.1069457
vt -0.1612529 0.01983331
vt -0.1539575 0.01735325
vt -0.1524941 0.02531601
vt 0.1491478 0.07453756
vt 0.1516974 0.06685336
vt 0.1585802 0.07031757
vt -0.1369316 0.09764177
vt -0.1308695 0.09288518
vt -0.1268511 0.09991369
vt 0.06338345 0.1661738
vt 0.05976356 0.1593716
vt 0.06738777 0.1566479
vt 0.1009539 0.1434596
vt 0.09405951 0.1477039
vt 0.01384979 0.01741425
vt 0.02074418 0.01316989
vt -0.1466082 0.09863041
vt -0.1501823 0.0913659
vt -0.01289824 0.02382273
vt -0.009324133 0.03108723
vt -0.09405932 0.147704
vt -0.1009537 0.1434597
vt -0.02074417 0.01316991
vt -0.01384979 0.01741426
vt 0.01484455 0.01188901
vt 0.01719145 0.0196375
vt 0.009442961 0.0219844
vt 0.007096061 0.0142359
o group1862790987
g mesh1862790987
usemtl mat14
f 4/4/1 3/3/1 2/2/1 1/1/1
f 8/8/2 7/7/2 6/6/2 5/5/2
f 3/12/3 10/11/3 9/10/3 2/9/3
f 10/16/4 12/15/4 11/14/4 9/13/4
f 12/20/5 14/19/5 13/18/5 11/17/5
f 14/24/6 16/23/6 15/22/6 13/21/6
f 16/28/7 17/27/7 6/26/7 15/25/7
f 17/32/8 18/31/8 5/30/8 6/29/8
f 18/36/9 4/35/9 1/34/9 5/33/9
f 20/40/10 19/39/10 3/38/10 4/37/10
f 19/44/11 21/43/11 10/42/11 3/41/11
f 21/48/12 22/47/12 12/46/12 10/45/12
f 22/52/13 23/51/13 14/50/13 12/49/13
f 23/56/14 24/55/14 16/54/14 14/53/14
f 24/60/15 25/59/15 17/58/15 16/57/15
f 25/64/16 26/63/16 18/62/16 17/61/16
f 26/68/17 20/67/17 4/66/17 18/65/17
f 26/76/18 25/75/18 24/74/18 23/73/18 22/72/18 21/71/18 19/70/18 20/69/18
f 7/80/19 27/79/19 15/78/19 6/77/19
f 27/84/20 28/83/20 13/82/20 15/81/20
f 28/88/21 29/87/21 11/86/21 13/85/21
f 29/92/22 30/91/22 9/90/22 11/89/22
f 30/96/23 31/95/23 2/94/23 9/93/23
f 31/100/24 32/99/24 1/98/24 2/97/24
f 32/104/25 8/103/25 5/102/25 1/101/25
f 33/107/26 7/106/26 8/105/26
f 33/110/27 28/109/27 27/108/27
f 34/113/28 30/112/28 29/111/28
f 35/116/29 32/115/29 31/114/29
f 33/123/31 27/122/31 7/121/31
f 34/126/32 29/125/32 28/124/32
f 35/129/33 31/128/33 30/127/33
f 36/132/34 8/131/34 32/130/34
f 35/135/35 36/134/35 32/133/35
f 8/138/36 36/137/36 33/136/36
f 34/141/37 35/140/37 30/139/37
f 33/144/38 34/143/38 28/142/38
usemtl mat18
f 38/120/30 37/119/30 33/118/30 36/117/30
f 37/148/39 39/147/39 34/146/39 33/145/39
f 39/152/40 40/151/40 35/150/40 34/149/40
f 40/156/41 38/155/41 36/154/41 35/153/41
f 40/160/42 39/159/42 37/158/42 38/157/42
